<svg width="19" height="18" viewBox="0 0 19 18" fill="none" xmlns="http://www.w3.org/2000/svg">
<g id="icon / jam-icons / outline &#38; logos / arrow-right">
<path id="Vector" d="M12.525 7.93654L9.58304 4.99462C9.44737 4.85416 9.3723 4.66602 9.374 4.47074C9.3757 4.27546 9.45402 4.08866 9.59211 3.95057C9.7302 3.81248 9.91701 3.73415 10.1123 3.73245C10.3076 3.73075 10.4957 3.80582 10.6362 3.94149L14.8494 8.15476C14.9188 8.22377 14.9739 8.30582 15.0115 8.39618C15.0491 8.48655 15.0684 8.58346 15.0684 8.68133C15.0684 8.7792 15.0491 8.8761 15.0115 8.96647C14.9739 9.05684 14.9188 9.13889 14.8494 9.20789L10.6362 13.4212C10.5675 13.4923 10.4853 13.549 10.3944 13.5881C10.3036 13.6271 10.2058 13.6476 10.1069 13.6485C10.008 13.6494 9.90996 13.6305 9.81843 13.5931C9.7269 13.5556 9.64374 13.5003 9.57381 13.4304C9.50388 13.3605 9.44858 13.2773 9.41113 13.1858C9.37368 13.0942 9.35484 12.9962 9.35569 12.8973C9.35655 12.7984 9.3771 12.7007 9.41613 12.6098C9.45517 12.5189 9.51191 12.4367 9.58304 12.368L12.525 9.42612H5.38541C5.18788 9.42612 4.99844 9.34765 4.85877 9.20797C4.71909 9.0683 4.64062 8.87886 4.64062 8.68133C4.64062 8.4838 4.71909 8.29436 4.85877 8.15468C4.99844 8.01501 5.18788 7.93654 5.38541 7.93654H12.525Z" fill="#475569"/>
</g>
</svg>
