<svg width="24" height="24" viewBox="0 0 24 24" fill="none" xmlns="http://www.w3.org/2000/svg">
<g id="Frame">
<path id="Vector" d="M7.05629 2.41732L8.22329 2.06632C8.86258 1.87355 9.55018 1.91995 10.1578 2.19688C10.7654 2.47381 11.2514 2.96234 11.5253 3.57132L12.4273 5.57732C12.6628 6.10112 12.7283 6.6855 12.6148 7.24846C12.5013 7.81142 12.2144 8.32471 11.7943 8.71632L10.3003 10.1093C10.2566 10.15 10.229 10.205 10.2223 10.2643C10.1783 10.6613 10.4473 11.4343 11.0673 12.5093C11.5183 13.2903 11.9273 13.8393 12.2743 14.1463C12.5163 14.3613 12.6493 14.4073 12.7063 14.3913L14.7163 13.7763C15.2652 13.6084 15.8529 13.6165 16.397 13.7994C16.9411 13.9823 17.4143 14.3309 17.7503 14.7963L19.0313 16.5723C19.4208 17.1124 19.6012 17.7755 19.5388 18.4385C19.4765 19.1015 19.1757 19.7193 18.6923 20.1773L17.8063 21.0173C17.3361 21.4626 16.7585 21.7786 16.1299 21.9344C15.5013 22.0902 14.8431 22.0805 14.2193 21.9063C11.4653 21.1373 8.99629 18.8133 6.78429 14.9823C4.56929 11.1463 3.79229 7.84232 4.50829 5.06932C4.66947 4.44566 4.98858 3.87402 5.43487 3.40952C5.88115 2.94502 6.43957 2.60331 7.05629 2.41732ZM7.48929 3.85432C7.11937 3.96578 6.78437 4.17061 6.51657 4.44909C6.24878 4.72757 6.0572 5.07032 5.96029 5.44432C5.35829 7.77632 6.04729 10.7053 8.08329 14.2323C10.1163 17.7543 12.3053 19.8143 14.6233 20.4623C14.9974 20.5665 15.3922 20.5721 15.7691 20.4785C16.146 20.385 16.4923 20.1954 16.7743 19.9283L17.6613 19.0883C17.8811 18.8801 18.0179 18.5992 18.0462 18.2978C18.0745 17.9963 17.9925 17.6948 17.8153 17.4493L16.5353 15.6743C16.3826 15.4625 16.1673 15.3039 15.9198 15.2207C15.6723 15.1375 15.405 15.1338 15.1553 15.2103L13.1403 15.8273C11.9703 16.1753 10.9083 15.2343 9.76829 13.2593C9.00029 11.9293 8.64229 10.8993 8.73129 10.0983C8.77829 9.68232 8.97129 9.29832 9.27729 9.01232L10.7713 7.61932C10.9623 7.44134 11.0928 7.208 11.1445 6.95207C11.1961 6.69614 11.1663 6.43046 11.0593 6.19232L10.1573 4.18632C10.0328 3.90973 9.81201 3.68783 9.53604 3.56199C9.26006 3.43615 8.94775 3.41494 8.65729 3.50232L7.48929 3.85432Z" fill="white"/>
</g>
</svg>
