<svg width="101" height="42" viewBox="0 0 101 42" fill="none" xmlns="http://www.w3.org/2000/svg">
<g id="Group">
<path id="Vector" d="M4.26502 15.8583C2.99119 14.5707 1.68717 13.22 0.347453 11.905C-0.399273 11.172 0.221169 10.7904 0.685127 10.3676C5.83259 5.65669 11.7707 2.40074 18.6203 0.964944C31.6605 -1.7639 43.2238 1.31085 53.2991 9.98879C54.7431 11.2324 54.7129 11.2407 53.3897 12.5996C52.2915 13.7279 51.2291 14.8892 50.2298 15.9516C34.8121 3.52907 19.6635 3.53181 4.26502 15.8583Z" fill="#182772"/>
<path id="Vector_2" d="M76.0795 31.8001C76.0795 30.9189 76.1426 30.1255 76.0411 29.3596C76.0109 29.1235 75.5194 28.7776 75.2367 28.7748C68.9142 28.7419 62.589 28.7501 56.2666 28.7501C56.2418 28.8627 56.2199 28.9725 56.1952 29.085C56.9941 29.2745 57.7875 29.4941 58.5946 29.6451C59.7668 29.862 60.9501 30.0267 62.1278 30.2079C62.9981 30.3424 63.5114 30.7569 63.5059 31.7233C63.4867 34.7129 63.5389 37.7026 63.4565 40.6895C63.4456 41.1068 62.8773 41.7711 62.4682 41.8562C61.7544 42.0072 61.307 41.4746 61.307 40.6895C61.307 38.3395 61.2685 35.9922 61.3179 33.645C61.3371 32.7528 61.0544 32.33 60.1457 32.2037C58.5589 31.9841 56.9831 31.6739 55.3881 31.3993C55.0257 32.5826 55.3222 33.0246 56.4697 33.0301C59.1738 33.0438 59.4401 33.2112 59.5829 35.984C59.6707 37.6889 59.3743 39.4239 59.1272 41.1287C59.0778 41.4719 58.4848 41.9935 58.1389 41.9962C55.9646 42.0155 53.7875 41.9551 51.616 41.8343C49.5433 41.719 48.2393 40.4781 47.9126 38.5317C47.5776 36.5303 47.5612 34.4686 47.5063 32.4288C47.487 31.6958 47.9098 31.1111 48.8048 31.1879C49.6202 31.2593 49.8261 31.7864 49.8453 32.5222C49.8892 34.1803 49.8535 35.855 50.0978 37.4857C50.3284 39.0203 51.2399 39.6325 52.7937 39.6655C53.9468 39.6902 55.1053 39.6325 56.2583 39.6847C57.0407 39.7204 57.3482 39.3443 57.4168 38.6552C57.4553 38.2736 57.4663 37.8893 57.469 37.5049C57.4855 35.4404 57.4223 35.3087 55.3579 35.3993C53.9687 35.4597 53.2467 34.9106 53.1094 33.5736C52.9914 32.4343 52.8047 31.2813 52.8706 30.1475C52.9365 28.967 52.5 28.6595 51.4046 28.7227C50.0841 28.7995 48.7526 28.7199 47.4266 28.7474C46.6442 28.7638 45.9991 28.5524 45.9661 27.6959C45.9305 26.7405 46.636 26.5209 47.4514 26.5374C47.7945 26.5429 48.1349 26.5346 48.4781 26.5346C64.8594 26.5346 81.2407 26.5346 97.6247 26.5346C98.0091 26.5346 98.4428 26.4276 98.7668 26.5703C99.2554 26.7845 99.8457 27.0892 100.046 27.5175C100.153 27.7453 99.5162 28.2999 99.2554 28.7309C99.0084 29.1399 98.635 29.5819 98.6267 30.013C98.5746 33.3869 98.6185 36.7609 98.5773 40.1322C98.5718 40.6428 98.3852 41.2331 98.0749 41.6201C97.8992 41.8425 97.169 41.9029 96.9247 41.7217C96.5788 41.4637 96.2713 40.9146 96.263 40.4863C96.2109 37.1563 96.2328 33.8262 96.2328 30.4934C96.2328 28.7446 96.2301 28.7391 94.4731 28.7391C89.6386 28.7364 84.8068 28.7831 79.9723 28.7089C78.6436 28.6897 78.295 29.1344 78.3252 30.4028C78.402 33.7328 78.3416 37.0629 78.3554 40.3957C78.3581 41.1617 78.1934 41.8013 77.3286 41.8919C76.5489 41.9715 76.1673 41.5405 76.1426 40.7416C76.1042 39.5062 76.0273 38.2736 75.9532 37.041C75.8187 34.831 74.3719 33.2552 72.3239 33.0795C68.9032 32.7857 68.3761 33.3348 68.5985 36.9696C68.6699 38.1254 69.8806 38.6717 70.9073 38.1171C71.4042 37.8508 72.3486 37.5845 72.5655 37.8124C72.9498 38.2187 73.164 39.0643 73.0157 39.6106C72.9032 40.0251 72.1153 40.5357 71.6376 40.5248C70.2924 40.4946 68.9417 40.2804 67.6157 40.0196C66.7701 39.8522 66.3638 39.218 66.3858 38.3148C66.4215 36.9504 66.3721 35.5804 66.4325 34.216C66.5285 32.05 67.7063 30.8558 69.9025 30.724C71.7886 30.6114 73.6664 30.6801 75.3849 31.6409C75.5112 31.7123 75.6897 31.7123 76.0795 31.8001Z" fill="#182772"/>
<path id="Vector_3" d="M13.5675 24.7215C11.9477 23.1072 10.4186 21.5836 8.88672 20.0599C18.078 10.2537 35.6673 9.79521 45.4653 19.9913C43.9252 21.5424 42.385 23.0908 40.7928 24.6913C37.0783 21.1965 32.5019 19.2528 27.1897 19.2528C21.8775 19.2501 17.3039 21.2185 13.5675 24.7215Z" fill="#182772"/>
<path id="Vector_4" d="M17.6328 29.1261C21.9594 23.8661 32.1638 23.8441 36.7347 29.041C36.5535 29.2798 36.3833 29.5599 36.1582 29.785C33.4788 32.4726 30.7911 35.1548 28.1007 37.8342C27.6834 38.2515 27.2908 38.8006 26.6292 38.1362C23.6505 35.1493 20.6691 32.1652 17.6328 29.1261Z" fill="#182772"/>
<path id="Vector_5" d="M67.4393 17.596C67.6342 17.0113 67.8456 16.432 68.0186 15.8445C68.4633 14.3346 68.8861 12.8192 69.3336 11.3092C69.5669 10.5186 69.8168 9.71147 70.8682 9.70324C71.9307 9.69225 72.1805 10.4966 72.4001 11.2955C72.8613 12.9784 73.2978 14.6668 73.759 16.3496C73.8743 16.7697 74.0418 17.1732 74.1846 17.585C74.2916 17.5795 74.3987 17.5741 74.5058 17.5686C75.0521 15.5425 75.6011 13.5165 76.1447 11.4904C76.1886 11.3257 76.1886 11.15 76.2381 10.988C76.4714 10.2331 76.8997 9.6099 77.7699 9.75815C78.6759 9.91188 79.0849 10.6092 78.8461 11.4795C77.9594 14.7217 77.0726 17.9639 76.0376 21.1594C75.8729 21.6646 74.8791 22.2932 74.385 22.2054C73.7343 22.0928 72.919 21.4367 72.6691 20.819C72.0707 19.3283 71.7659 17.7223 71.3322 16.1657C71.2443 15.85 71.1153 15.5453 70.7117 15.1994C70.2478 16.7038 69.7811 18.2055 69.3199 19.7126C68.9575 20.8959 68.7296 22.2987 67.1126 22.2685C65.4902 22.2383 65.3337 20.8163 65.0152 19.6248C64.3371 17.0744 63.6673 14.524 62.9727 11.9791C62.7091 11.01 62.7229 10.0821 63.843 9.80207C64.9932 9.51381 65.3584 10.3841 65.5835 11.3422C66.0694 13.4286 66.602 15.5041 67.1181 17.5823C67.2252 17.585 67.3323 17.5905 67.4393 17.596Z" fill="#182772"/>
<path id="Vector_6" d="M93.4654 35.9493C93.4654 36.8882 93.4737 37.8271 93.4654 38.7633C93.4435 40.9074 92.4771 42.0714 90.3715 41.9533C88.6145 41.8545 86.8025 41.5168 85.1581 40.9074C82.1465 39.79 81.3256 37.1298 81.1033 34.228C81.0319 33.2946 81.0703 32.3502 81.0978 31.4141C81.1225 30.6371 81.3256 29.9343 82.303 29.9371C83.2831 29.9398 83.4505 30.5877 83.467 31.4086C83.4972 32.8938 83.4917 34.39 83.6839 35.8587C83.9117 37.5965 85.0675 38.659 86.7229 39.1147C87.6618 39.3727 88.6364 39.521 89.6055 39.639C90.5993 39.7626 91.1264 39.3151 91.1072 38.2499C91.077 36.6713 91.1374 35.0928 91.0743 33.517C91.0578 33.0805 90.8135 32.3585 90.5417 32.2898C89.9789 32.1443 89.1827 32.1526 88.7462 32.4655C88.1477 32.891 87.4916 33.4648 87.003 32.8773C86.5719 32.3585 86.4649 31.3894 86.5802 30.6783C86.6323 30.3516 87.5383 30.0304 88.0928 29.9508C88.9302 29.83 89.7977 29.9014 90.6515 29.9289C92.3755 29.9838 93.4105 31.0187 93.4599 32.751C93.4901 33.8135 93.4627 34.8814 93.4654 35.9493Z" fill="#182772"/>
<path id="Vector_7" d="M85.7009 15.9736C85.6981 14.4362 85.7036 12.9016 85.6981 11.3642C85.6926 10.2578 86.2499 9.70329 87.3426 9.69505C89.1819 9.68407 91.0186 9.68681 92.8579 9.6923C93.7803 9.69505 94.4776 10.0245 94.4886 11.0677C94.4996 12.1631 93.7227 12.3745 92.8305 12.3827C92.103 12.391 91.3672 12.3168 90.6534 12.4074C89.7804 12.52 88.394 11.7952 88.416 13.5989C88.4352 15.3037 89.753 14.5899 90.5903 14.7327C91.0048 14.8041 91.4441 14.7519 91.8696 14.7519C92.663 14.7547 93.1928 15.0704 93.2395 15.9297C93.2889 16.8246 92.7646 17.3051 91.9629 17.4011C91.1613 17.4945 90.3377 17.4835 89.5306 17.4204C88.6576 17.3517 88.3885 17.7498 88.405 18.5377C88.4215 19.3064 88.3913 20.0751 88.3803 20.841C88.3666 21.7168 87.8642 22.2549 87.0516 22.2603C86.2252 22.2658 85.7311 21.6783 85.7146 20.8383C85.6817 19.2185 85.7009 17.5961 85.7009 15.9736Z" fill="#182772"/>
<path id="Vector_8" d="M83.698 18.1605C83.698 19.0528 83.8655 19.9917 83.6404 20.8262C83.4894 21.389 82.847 22.111 82.3171 22.2154C81.5512 22.3664 81.0213 21.7212 81.0213 20.8455C81.0213 18.9732 81.0158 17.1009 81.0241 15.2313C81.0268 14.3748 81.4963 13.6939 82.3089 13.8724C82.847 13.9904 83.5086 14.6905 83.6376 15.2423C83.8545 16.1674 83.6953 17.1832 83.698 18.1605Z" fill="#182772"/>
<path id="Vector_9" d="M98.6169 18.1418C98.6169 19.034 98.6059 19.929 98.6196 20.8212C98.6333 21.7079 98.131 22.2405 97.3321 22.257C96.5304 22.2735 95.9896 21.7354 95.9814 20.8706C95.9622 18.9983 95.9567 17.1287 95.9814 15.2564C95.9924 14.345 96.5167 13.7822 97.4199 13.8289C98.2737 13.8728 98.6388 14.4823 98.6251 15.3333C98.6032 16.2695 98.6169 17.2056 98.6169 18.1418Z" fill="#182772"/>
<path id="Vector_10" d="M98.8093 10.0219C98.6117 11.0926 98.2411 11.562 97.4092 11.6005C96.5417 11.6417 96.0119 11.2353 95.9926 10.3623C95.9734 9.50031 96.5637 8.93203 97.3296 9.0089C97.8512 9.06106 98.3152 9.66503 98.8093 10.0219Z" fill="#182772"/>
<path id="Vector_11" d="M80.8086 10.1148C81.278 9.72771 81.8189 8.97 82.2005 9.04413C82.755 9.1512 83.1943 9.85399 83.6802 10.3042C83.2409 10.7352 82.8648 11.3941 82.3432 11.5479C81.5745 11.773 81.0914 11.2102 80.8086 10.1148Z" fill="#182772"/>
</g>
</svg>
