<svg width="139" height="58" viewBox="0 0 139 58" fill="none" xmlns="http://www.w3.org/2000/svg">
<g id="Group">
<path id="Vector" d="M5.88982 21.8996C4.13072 20.1216 2.32991 18.2563 0.479819 16.4404C-0.55138 15.4281 0.305426 14.9011 0.946134 14.3173C8.05458 7.81166 16.2549 3.31533 25.7138 1.33255C43.7219 -2.43587 59.6903 1.81023 73.6039 13.7941C75.5981 15.5115 75.5563 15.5229 73.729 17.3995C72.2125 18.9577 70.7454 20.5614 69.3654 22.0285C48.0742 4.8735 27.1545 4.87729 5.88982 21.8996Z" fill="white"/>
<path id="Vector_2" d="M105.063 43.9145C105.063 42.6976 105.15 41.6019 105.01 40.5442C104.968 40.2181 104.289 39.7405 103.899 39.7367C95.1678 39.6912 86.4329 39.7025 77.7018 39.7025C77.6677 39.858 77.6374 40.0096 77.6033 40.1651C78.7065 40.4267 79.8022 40.73 80.9168 40.9385C82.5356 41.238 84.1696 41.4654 85.796 41.7157C86.9978 41.9014 87.7067 42.4739 87.6992 43.8084C87.6726 47.937 87.7446 52.0655 87.6309 56.1903C87.6158 56.7666 86.831 57.6841 86.2661 57.8016C85.2804 58.0101 84.6624 57.2746 84.6624 56.1903C84.6624 52.9451 84.6094 49.7036 84.6776 46.4622C84.7041 45.2301 84.3136 44.6462 83.0588 44.4718C80.8675 44.1685 78.6913 43.7401 76.4887 43.361C75.9882 44.995 76.3977 45.6054 77.9824 45.613C81.7167 45.6319 82.0844 45.8632 82.2816 49.6923C82.4029 52.0466 81.9935 54.4426 81.6522 56.7969C81.584 57.2708 80.7651 57.9911 80.2874 57.9949C77.2848 58.0215 74.2784 57.9381 71.2796 57.7713C68.4173 57.612 66.6165 55.8984 66.1653 53.2105C65.7028 50.4467 65.68 47.5996 65.6042 44.7827C65.5777 43.7705 66.1615 42.963 67.3974 43.0691C68.5234 43.1677 68.8078 43.8956 68.8343 44.9116C68.895 47.2015 68.8457 49.5141 69.1831 51.7661C69.5015 53.8853 70.7602 54.7307 72.906 54.7762C74.4983 54.8104 76.0982 54.7307 77.6905 54.8028C78.771 54.8521 79.1956 54.3327 79.2903 53.3811C79.3434 52.8541 79.3586 52.3234 79.3624 51.7926C79.3851 48.9416 79.2979 48.7597 76.447 48.8848C74.5286 48.9682 73.5316 48.2099 73.342 46.3636C73.179 44.7903 72.9212 43.198 73.0122 41.6323C73.1032 40.002 72.5004 39.5774 70.9877 39.6646C69.1641 39.7708 67.3254 39.6608 65.4943 39.6988C64.4138 39.7215 63.5229 39.4296 63.4774 38.2467C63.4281 36.9274 64.4024 36.6241 65.5284 36.6469C66.0023 36.6544 66.4724 36.6431 66.9463 36.6431C89.5682 36.6431 112.19 36.6431 134.816 36.6431C135.347 36.6431 135.946 36.4952 136.393 36.6924C137.068 36.9881 137.883 37.4089 138.16 38.0003C138.307 38.315 137.428 39.0808 137.068 39.676C136.727 40.2409 136.211 40.8513 136.2 41.4465C136.128 46.1058 136.188 50.7652 136.131 55.4207C136.124 56.1259 135.866 56.941 135.438 57.4756C135.195 57.7826 134.186 57.866 133.849 57.6158C133.371 57.2595 132.947 56.5012 132.935 55.9098C132.863 51.3111 132.894 46.7124 132.894 42.1099C132.894 39.695 132.89 39.6874 130.464 39.6874C123.787 39.6836 117.115 39.748 110.439 39.6457C108.604 39.6191 108.122 40.2333 108.164 41.9848C108.27 46.5835 108.187 51.1822 108.206 55.7847C108.209 56.8424 107.982 57.7258 106.788 57.8509C105.711 57.9608 105.184 57.3656 105.15 56.2624C105.097 54.5563 104.991 52.8541 104.888 51.1519C104.703 48.1 102.705 45.9239 99.8764 45.6812C95.1526 45.2756 94.4247 46.0338 94.7318 51.0533C94.8304 52.6494 96.5022 53.4038 97.9201 52.638C98.6063 52.2703 99.9105 51.9025 100.21 52.2172C100.741 52.7783 101.036 53.946 100.832 54.7004C100.676 55.2729 99.5883 55.978 98.9286 55.9629C97.0709 55.9212 95.2057 55.6255 93.3745 55.2653C92.2069 55.034 91.6458 54.1583 91.6761 52.911C91.7254 51.0268 91.6571 49.135 91.7405 47.2508C91.8732 44.2595 93.4997 42.6104 96.5326 42.4284C99.1371 42.273 101.73 42.3677 104.104 43.6946C104.278 43.7932 104.524 43.7932 105.063 43.9145Z" fill="white"/>
<path id="Vector_3" d="M18.7364 34.1399C16.4996 31.9107 14.3879 29.8066 12.2725 27.7025C24.9653 14.1605 49.2553 13.5273 62.786 27.6078C60.6591 29.7498 58.5323 31.888 56.3334 34.0982C51.204 29.2721 44.8841 26.5879 37.5482 26.5879C30.2123 26.5841 23.8962 29.3024 18.7364 34.1399Z" fill="white"/>
<path id="Vector_4" d="M24.3506 40.2222C30.3255 32.9583 44.4172 32.928 50.7295 40.1046C50.4793 40.4345 50.2443 40.8212 49.9334 41.132C46.2332 44.8436 42.5217 48.5476 38.8063 52.2478C38.2301 52.824 37.6879 53.5822 36.7742 52.6648C32.6608 48.54 28.5436 44.419 24.3506 40.2222Z" fill="white"/>
<path id="Vector_5" d="M93.131 24.3002C93.4002 23.4926 93.6921 22.6927 93.931 21.8814C94.5451 19.7962 95.129 17.7035 95.7469 15.6184C96.0692 14.5265 96.4142 13.4119 97.8662 13.4005C99.3334 13.3854 99.6784 14.4962 99.9817 15.5994C100.619 17.9234 101.221 20.255 101.858 22.579C102.018 23.159 102.249 23.7163 102.446 24.285C102.594 24.2774 102.742 24.2698 102.89 24.2622C103.644 21.4644 104.402 18.6665 105.153 15.8686C105.213 15.6411 105.213 15.3985 105.282 15.1748C105.604 14.1322 106.195 13.2716 107.397 13.4764C108.648 13.6887 109.213 14.6516 108.883 15.8534C107.659 20.3308 106.434 24.8082 105.005 29.2211C104.778 29.9187 103.405 30.7868 102.723 30.6655C101.824 30.5101 100.698 29.604 100.353 28.751C99.5267 26.6924 99.1059 24.4746 98.5069 22.325C98.3856 21.889 98.2074 21.4682 97.6501 20.9905C97.0094 23.068 96.3649 25.1418 95.728 27.2231C95.2276 28.8571 94.9129 30.7944 92.6799 30.7527C90.4393 30.711 90.2232 28.7472 89.7834 27.1018C88.847 23.5798 87.922 20.0578 86.9628 16.5434C86.5989 15.2051 86.6178 13.9237 88.1646 13.537C89.7531 13.139 90.2573 14.3408 90.5682 15.6639C91.2392 18.5452 91.9747 21.4113 92.6875 24.2812C92.8353 24.285 92.9832 24.2926 93.131 24.3002Z" fill="white"/>
<path id="Vector_6" d="M129.072 49.6432C129.072 50.9398 129.084 52.2364 129.072 53.5292C129.042 56.4901 127.707 58.0975 124.8 57.9345C122.373 57.798 119.871 57.3317 117.6 56.4901C113.441 54.9471 112.308 51.2734 112.001 47.2662C111.902 45.9772 111.955 44.673 111.993 43.3802C112.027 42.3073 112.308 41.3368 113.657 41.3406C115.011 41.3444 115.242 42.2391 115.265 43.3726C115.307 45.4237 115.299 47.4899 115.564 49.5181C115.879 51.9179 117.475 53.3851 119.761 54.0145C121.058 54.3708 122.404 54.5756 123.742 54.7386C125.114 54.9092 125.842 54.2912 125.816 52.8202C125.774 50.6403 125.857 48.4604 125.77 46.2843C125.747 45.6815 125.41 44.6844 125.035 44.5896C124.257 44.3887 123.158 44.4001 122.555 44.8322C121.729 45.4199 120.823 46.2122 120.148 45.4009C119.553 44.6844 119.405 43.3461 119.564 42.3642C119.636 41.913 120.887 41.4695 121.653 41.3595C122.809 41.1927 124.007 41.2913 125.186 41.3292C127.567 41.405 128.996 42.8343 129.065 45.2265C129.106 46.6937 129.068 48.1685 129.072 49.6432Z" fill="white"/>
<path id="Vector_7" d="M118.349 22.0597C118.346 19.9367 118.353 17.8174 118.346 15.6944C118.338 14.1665 119.108 13.4007 120.617 13.3893C123.157 13.3742 125.693 13.378 128.233 13.3855C129.507 13.3893 130.47 13.8443 130.485 15.2849C130.5 16.7976 129.427 17.0895 128.195 17.1009C127.19 17.1123 126.174 17.0099 125.189 17.135C123.983 17.2904 122.069 16.2896 122.099 18.7804C122.125 21.1347 123.945 20.149 125.102 20.3461C125.674 20.4447 126.281 20.3727 126.868 20.3727C127.964 20.3765 128.696 20.8124 128.76 21.9991C128.828 23.235 128.104 23.8985 126.997 24.0311C125.89 24.16 124.753 24.1449 123.638 24.0577C122.433 23.9629 122.061 24.5126 122.084 25.6007C122.107 26.6622 122.065 27.7237 122.05 28.7815C122.031 29.9909 121.337 30.7339 120.215 30.7415C119.074 30.7491 118.391 29.9378 118.368 28.7777C118.323 26.5409 118.349 24.3003 118.349 22.0597Z" fill="white"/>
<path id="Vector_8" d="M115.584 25.0805C115.584 26.3126 115.815 27.6092 115.504 28.7617C115.295 29.5389 114.408 30.536 113.677 30.68C112.619 30.8885 111.887 29.9976 111.887 28.7882C111.887 26.2026 111.88 23.6171 111.891 21.0353C111.895 19.8524 112.543 18.9122 113.665 19.1586C114.408 19.3217 115.322 20.2884 115.5 21.0504C115.8 22.3281 115.58 23.7308 115.584 25.0805Z" fill="white"/>
<path id="Vector_9" d="M136.186 25.0534C136.186 26.2855 136.171 27.5215 136.19 28.7536C136.209 29.9781 135.515 30.7136 134.412 30.7364C133.305 30.7591 132.558 30.016 132.546 28.8218C132.52 26.2362 132.512 23.6545 132.546 21.0689C132.561 19.8102 133.286 19.033 134.533 19.0975C135.712 19.1581 136.216 19.9998 136.197 21.175C136.167 22.4678 136.186 23.7606 136.186 25.0534Z" fill="white"/>
<path id="Vector_10" d="M136.452 13.8402C136.179 15.3187 135.667 15.967 134.518 16.0201C133.32 16.077 132.589 15.5159 132.562 14.3103C132.536 13.1198 133.351 12.3351 134.408 12.4412C135.129 12.5133 135.769 13.3473 136.452 13.8402Z" fill="white"/>
<path id="Vector_11" d="M111.594 13.9699C112.242 13.4354 112.989 12.389 113.516 12.4914C114.282 12.6392 114.888 13.6098 115.559 14.2315C114.953 14.8267 114.433 15.7366 113.713 15.9489C112.651 16.2598 111.984 15.4826 111.594 13.9699Z" fill="white"/>
</g>
</svg>
