<svg width="18" height="18" viewBox="0 0 18 18" fill="none" xmlns="http://www.w3.org/2000/svg">
<g id="icon / ionicons / filled / play">
<path id="Vector" d="M5.08379 14.9464C4.8799 14.9461 4.67963 14.8926 4.50266 14.7914C4.10417 14.5655 3.85645 14.1272 3.85645 13.6514V4.02122C3.85645 3.54403 4.10417 3.10702 4.50266 2.88121C4.68384 2.77708 4.88966 2.72354 5.09862 2.72617C5.30757 2.7288 5.51198 2.7875 5.69049 2.89615L13.9209 7.8228C14.0925 7.93035 14.2339 8.07971 14.3319 8.25686C14.4299 8.43401 14.4813 8.63316 14.4813 8.83562C14.4813 9.03808 14.4299 9.23723 14.3319 9.41438C14.2339 9.59153 14.0925 9.74089 13.9209 9.84844L5.68916 14.7764C5.50648 14.8869 5.29725 14.9456 5.08379 14.9464Z" fill="white"/>
</g>
</svg>
